# xmcd
#
# Track frame offsets: 
#        150
#        17137
#        34930
#        55166
#        72725
#        96848
#        114359
#        133673
#        155686
#        176151
#        200482
#        207703
#        238053
#        263392
#
# Disc length: 4132 seconds
#
# Revision: 2
# Processed by: cddbd v1.5.2PL0 Copyright (c) Steve Scherf et al.
# Submitted via: ExactAudioCopyFreeDBPlugin 1.0
#
DISCID=d110220e
DTITLE=Hannibal and Joku Roti Mafia - Ad Portas
DYEAR=2010
DGENRE=Rap
TTITLE0=Viimiset P‰iv‰t
TTITLE1=Babylon Palaa
TTITLE2=T‰h‰ Voit Luottaa (feat. Jodarok)
TTITLE3=Kuten Funkadelic
TTITLE4=Sielunruokaa (feat. Edorf and Tykopaatti)
TTITLE5=Legendastatus
TTITLE6=Porteillas (feat. K-Rino)
TTITLE7=Eilen-T‰nn‰‰n-Huomena
TTITLE8=Perusgettoarkea
TTITLE9=Kuuletko Kama Kutsuu (feat. TKK and Lempi-Joe)
TTITLE10=Hyvink‰‰ Lada Ride
TTITLE11=Puuratti (feat. Stepa, Tykopaatti and Edorf)
TTITLE12=Neron Heikkouet
TTITLE13=Eilen-T‰nn‰‰n-Huomena Posse [Bonus Track] (feat. 6-M‰ki, R-Sy
TTITLE13=ke, Tykopaatti, Lauri R‰pping Vantaanjoki, Tapani Kansalainen
TTITLE13=)
EXTD=YEAR: 2010
EXTT0=
EXTT1=
EXTT2=
EXTT3=
EXTT4=
EXTT5=
EXTT6=
EXTT7=
EXTT8=
EXTT9=
EXTT10=
EXTT11=
EXTT12=
EXTT13=
PLAYORDER=
